<mxfile host="app.diagrams.net" modified="2020-10-12T08:10:02.181Z" agent="5.0 (Windows NT 10.0; Win64; x64) AppleWebKit/537.36 (KHTML, like Gecko) Chrome/85.0.4183.121 Safari/537.36" etag="K0lWr8GFwbImss0pFAwg" version="13.7.9" type="github">
  <diagram id="FKuchFnE7nP5kTEAL4lJ" name="Page-1">
    <mxGraphModel dx="1038" dy="580" grid="1" gridSize="10" guides="1" tooltips="1" connect="1" arrows="1" fold="1" page="1" pageScale="1" pageWidth="827" pageHeight="1169" math="0" shadow="0">
      <root>
        <mxCell id="0" />
        <mxCell id="1" parent="0" />
        <mxCell id="r0KoEhYtR4IhZZxguKb5-4" style="edgeStyle=orthogonalEdgeStyle;rounded=0;orthogonalLoop=1;jettySize=auto;html=1;" edge="1" parent="1" source="r0KoEhYtR4IhZZxguKb5-1" target="r0KoEhYtR4IhZZxguKb5-2">
          <mxGeometry relative="1" as="geometry" />
        </mxCell>
        <mxCell id="r0KoEhYtR4IhZZxguKb5-1" value="Start" style="ellipse;whiteSpace=wrap;html=1;" vertex="1" parent="1">
          <mxGeometry x="100" y="10" width="120" height="40" as="geometry" />
        </mxCell>
        <mxCell id="r0KoEhYtR4IhZZxguKb5-6" style="edgeStyle=orthogonalEdgeStyle;rounded=0;orthogonalLoop=1;jettySize=auto;html=1;" edge="1" parent="1" source="r0KoEhYtR4IhZZxguKb5-2" target="r0KoEhYtR4IhZZxguKb5-5">
          <mxGeometry relative="1" as="geometry" />
        </mxCell>
        <mxCell id="r0KoEhYtR4IhZZxguKb5-2" value="Initialize LCD, Relay, Storage Layer" style="rounded=0;whiteSpace=wrap;html=1;" vertex="1" parent="1">
          <mxGeometry x="55" y="80" width="210" height="40" as="geometry" />
        </mxCell>
        <mxCell id="r0KoEhYtR4IhZZxguKb5-5" value="Take output of all sensors and store it in storage layer" style="rounded=0;whiteSpace=wrap;html=1;" vertex="1" parent="1">
          <mxGeometry x="350" y="70" width="200" height="60" as="geometry" />
        </mxCell>
        <mxCell id="r0KoEhYtR4IhZZxguKb5-8" value="Temperature&lt;br&gt;Humidity&lt;br&gt;Pressure&lt;br&gt;Accelerometer&lt;br&gt;Images (Camera Module)&lt;br&gt;Logical input (0 or 1)" style="rounded=0;whiteSpace=wrap;html=1;align=center;labelPosition=center;verticalLabelPosition=middle;verticalAlign=middle;" vertex="1" parent="1">
          <mxGeometry x="640" y="55" width="160" height="90" as="geometry" />
        </mxCell>
        <mxCell id="r0KoEhYtR4IhZZxguKb5-9" value="" style="endArrow=classic;startArrow=classic;html=1;entryX=0;entryY=0.5;entryDx=0;entryDy=0;exitX=1;exitY=0.5;exitDx=0;exitDy=0;" edge="1" parent="1" source="r0KoEhYtR4IhZZxguKb5-5" target="r0KoEhYtR4IhZZxguKb5-8">
          <mxGeometry width="50" height="50" relative="1" as="geometry">
            <mxPoint x="570" y="110" as="sourcePoint" />
            <mxPoint x="620" y="60" as="targetPoint" />
          </mxGeometry>
        </mxCell>
      </root>
    </mxGraphModel>
  </diagram>
</mxfile>
